<?xml version="1.0" encoding="utf-8"?>
<!-- Generator: Adobe Illustrator 18.1.0, SVG Export Plug-In . SVG Version: 6.00 Build 0)  -->
<!DOCTYPE svg PUBLIC "-//W3C//DTD SVG 1.1//EN" "http://www.w3.org/Graphics/SVG/1.1/DTD/svg11.dtd">
<svg version="1.1" id="Layer_1" xmlns="http://www.w3.org/2000/svg" xmlns:xlink="http://www.w3.org/1999/xlink" x="0px" y="0px"
	 viewBox="0 0 30 30" enable-background="new 0 0 30 30" xml:space="preserve">
<g>
	<g>
		<path fill="#30B6CD" d="M13.2,18c-0.1,0-0.2,0-0.3-0.1L11,16c-0.2-0.2-0.2-0.4,0-0.6c0.2-0.2,0.4-0.2,0.6,0l1.5,1.5l5.2-4.8
			c0.2-0.2,0.4-0.2,0.6,0s0.2,0.4,0,0.6l-5.5,5.1C13.4,17.9,13.3,18,13.2,18z"/>
	</g>
	<g>
		<path fill="#30B6CD" d="M15,23.8c-4.9,0-8.8-4-8.8-8.8s4-8.8,8.8-8.8s8.8,4,8.8,8.8S19.9,23.8,15,23.8z M15,7c-4.4,0-8,3.6-8,8
			s3.6,8,8,8s8-3.6,8-8S19.4,7,15,7z"/>
	</g>
</g>
</svg>
